#!OML:ASF E:\Steps\Project 1\Capture day 1\Session 2\Subject.ASF
:FULLY-SPECIFIED
:DEGREES
49
root 9.21377 16.3661 10.6263 -149.865 1.79114 179.227
lowerback -29.1928 -0.914966 -6.7006
upperback -1.99069 1.88684 -0.511198
thorax 13.011 0.837344 3.87585
lowerneck -0.141526 -0.0862914 -3.86902
upperneck 8.75625 -0.942525 7.01349
head 2.91708 -0.544954 2.96976
rclavicle -5.56597e-015 -2.78299e-015
rhumerus -31.428 -6.18424 -87.3332
rradius 40.5882
rwrist -6.02039
rhand -3.74001 -52.769
rfingers 7.12502
rthumb 22.0036 -81.5374
lclavicle -5.56597e-015 -2.78299e-015
lhumerus -30.8704 5.20007 82.0318
lradius 27.8307
lwrist 3.06684
lhand -22.8444 -15.0455
lfingers 7.12502
lthumb 3.59333 14.904
rfemur -26.9439 8.08896 18.8039
rtibia 5.28794
rfoot -17.6067 -10.9947
rtoes -26.9372
lfemur -29.2398 -10.5627 -16.3156
ltibia 8.59887
lfoot -7.96884 3.87763
ltoes -40.8612
50
root 9.21598 16.3671 10.626 -149.865 1.79006 179.251
lowerback -29.1688 -0.897468 -6.70689
upperback -1.96425 1.90692 -0.522848
thorax 13.0282 0.842637 3.87401
lowerneck -0.103788 -0.0864 -3.81574
upperneck 8.73987 -0.944653 7.00419
head 2.90377 -0.545774 2.95587
rclavicle 2.08724e-015 -2.78299e-014
rhumerus -31.4424 -6.09328 -87.4098
rradius 40.6771
rwrist -6.12982
rhand -3.84222 -52.754
rfingers 7.12502
rthumb 21.9055 -81.534
lclavicle 2.08724e-015 -2.78299e-014
lhumerus -30.8998 4.96514 82.0559
lradius 27.9423
lwrist 3.06821
lhand -22.7921 -14.8958
lfingers 7.12502
lthumb 3.6439 15.0528
rfemur -26.9314 7.93627 18.8842
rtibia 5.27444
rfoot -17.5503 -10.8105
rtoes -27.0838
lfemur -29.2077 -10.4923 -16.2932
ltibia 8.54758
lfoot -7.93539 3.83743
ltoes -40.8639
51
root 9.21774 16.3689 10.6255 -149.884 1.79215 179.211
lowerback -29.2254 -0.921235 -6.7682
upperback -1.8473 1.88999 -0.529488
thorax 13.1866 0.814923 3.8964
lowerneck -0.108771 -0.0783628 -3.78224
upperneck 8.72056 -0.931424 6.9916
head 2.89669 -0.538015 2.94525
rclavicle 5.56597e-015 -3.97569e-016
rhumerus -31.3596 -5.95626 -87.4898
rradius 40.8011
rwrist -6.2254
rhand -3.81451 -52.5451
rfingers 7.12502
rthumb 21.9321 -81.3219
lclavicle 5.56597e-015 -3.97569e-016
lhumerus -30.8045 4.88464 82.0552
lradius 28.0131
lwrist 2.87172
lhand -22.6811 -15.0525
lfingers 7.12502
lthumb 3.75106 14.8942
rfemur -26.9183 7.84863 18.8711
rtibia 5.27695
rfoot -17.5489 -10.7871
rtoes -27.2663
lfemur -29.176 -10.4318 -16.3577
ltibia 8.47833
lfoot -7.89533 3.77067
ltoes -40.9883
52
root 9.21757 16.3706 10.6264 -149.894 1.75436 179.169
lowerback -28.8517 -0.939859 -6.79174
upperback -2.02274 1.85207 -0.54895
thorax 12.8212 0.823575 3.86424
lowerneck -0.0862636 -0.0948819 -3.73583
upperneck 8.74594 -0.960477 6.98737
head 2.90228 -0.552829 2.93453
rclavicle 1.2424e-014 1.66979e-014
rhumerus -31.7172 -5.87779 -87.5271
rradius 40.948
rwrist -6.31506
rhand -3.89345 -52.2105
rfingers 7.12502
rthumb 21.8563 -80.9961
lclavicle 1.2424e-014 1.66979e-014
lhumerus -31.107 4.68021 82.0258
lradius 28.1482
lwrist 2.80014
lhand -22.5981 -15.1292
lfingers 7.12502
lthumb 3.83121 14.8161
rfemur -26.8927 7.91805 18.8024
rtibia 5.23676
rfoot -17.5 -10.9608
rtoes -27.5154
lfemur -29.1783 -10.4104 -16.4191
ltibia 8.44562
lfoot -7.82746 3.69144
ltoes -41.2413
53
root 9.21841 16.3721 10.6292 -149.888 1.7365 179.189
lowerback -29.0934 -0.936921 -6.81236
upperback -1.77071 1.85503 -0.513215
thorax 13.2154 0.785193 3.92324
lowerneck -0.0401464 -0.0530746 -3.74423
upperneck 8.70566 -0.899677 6.97379
head 2.87605 -0.523585 2.93188
rclavicle -1.21259e-014 6.36111e-015
rhumerus -31.3572 -5.76862 -87.5561
rradius 40.9666
rwrist -6.47082
rhand -3.99108 -51.9249
rfingers 7.12502
rthumb 21.7625 -80.7215
lclavicle -1.21259e-014 6.36111e-015
lhumerus -30.7202 4.54719 82.1531
lradius 28.2211
lwrist 2.89824
lhand -22.5702 -14.9237
lfingers 7.12502
lthumb 3.85817 15.0211
rfemur -27.0116 8.39268 18.6911
rtibia 5.45464
rfoot -17.6144 -11.4432
rtoes -27.5126
lfemur -29.1934 -10.3262 -16.4184
ltibia 8.47354
lfoot -7.8383 3.61247
ltoes -41.7164
54
root 9.21847 16.3713 10.6308 -149.838 1.75964 179.192
lowerback -28.6904 -0.913547 -6.70852
upperback -2.03128 1.84709 -0.598851
thorax 12.7429 0.828314 3.76055
lowerneck -0.0357861 -0.0762381 -3.70944
upperneck 8.74334 -0.937991 6.97331
head 2.89 -0.542934 2.92478
rclavicle -3.77691e-015 -5.56597e-015
rhumerus -31.7833 -5.72018 -87.7059
rradius 41.0863
rwrist -6.55132
rhand -3.74318 -51.9866
rfingers 7.12502
rthumb 22.0006 -80.7554
lclavicle -3.77691e-015 -5.56597e-015
lhumerus -31.1576 4.14709 82.0738
lradius 28.4391
lwrist 3.09152
lhand -22.6099 -14.7353
lfingers 7.12502
lthumb 3.81986 15.2102
rfemur -26.9931 7.95587 18.8237
rtibia 5.28369
rfoot -17.508 -10.9958
rtoes -27.7246
lfemur -29.2433 -10.292 -16.4223
ltibia 8.48506
lfoot -7.87616 3.57708
ltoes -41.6147
55
root 9.21782 16.3705 10.6316 -149.722 1.75005 179.167
lowerback -28.5017 -0.926639 -6.67401
upperback -2.51248 1.81022 -0.716831
thorax 12.8777 0.810287 3.80614
lowerneck -0.0604165 -0.0938536 -3.69693
upperneck 8.7654 -0.963773 6.97237
head 2.90354 -0.555168 2.922
rclavicle -2.28602e-015 -1.07344e-014
rhumerus -31.9583 -5.63152 -87.7771
rradius 41.1677
rwrist -6.5084
rhand -3.57869 -51.8974
rfingers 7.12502
rthumb 22.1585 -80.6475
lclavicle -2.28602e-015 -1.07344e-014
lhumerus -31.3584 3.95503 82.0782
lradius 28.5945
lwrist 3.12685
lhand -22.5966 -14.8877
lfingers 7.12502
lthumb 3.83269 15.0576
rfemur -27.1641 7.84718 18.8102
rtibia 5.37427
rfoot -17.5109 -10.9342
rtoes -27.7289
lfemur -29.409 -10.3102 -16.4196
ltibia 8.53859
lfoot -7.8766 3.53438
ltoes -40.9451
56
root 9.21873 16.3719 10.6348 -149.633 1.76627 179.126
lowerback -28.38 -0.961258 -6.75872
upperback -2.56023 1.7782 -0.683171
thorax 12.7571 0.797875 3.87765
lowerneck -0.0864649 -0.0941253 -3.72829
upperneck 8.7847 -0.963317 6.97163
head 2.91532 -0.55522 2.92816
rclavicle 2.28602e-014 1.66979e-014
rhumerus -32.0504 -5.46869 -87.7708
rradius 41.2594
rwrist -6.50434
rhand -3.76775 -51.8089
rfingers 7.12502
rthumb 21.977 -80.5804
lclavicle 2.28602e-014 1.66979e-014
lhumerus -31.4481 3.95781 82.1235
lradius 28.682
lwrist 3.04186
lhand -22.4892 -15.2138
lfingers 7.12502
lthumb 3.9364 14.7296
rfemur -27.269 7.77992 18.7671
rtibia 5.35798
rfoot -17.464 -10.8914
rtoes -27.7302
lfemur -29.5616 -10.2153 -16.4757
ltibia 8.6618
lfoot -7.88722 3.44961
ltoes -40.5437
57
root 9.21889 16.3751 10.6354 -149.725 1.78418 179.083
lowerback -28.1681 -0.981211 -6.84593
upperback -2.49682 1.73825 -0.641837
thorax 12.7196 0.765304 3.95378
lowerneck -0.106072 -0.0733829 -3.77608
upperneck 8.79021 -0.932039 6.9685
head 2.91943 -0.540334 2.93708
rclavicle 8.84592e-015 7.55382e-015
rhumerus -31.9887 -5.23824 -87.7744
rradius 41.3119
rwrist -6.59367
rhand -3.98687 -51.8895
rfingers 7.12502
rthumb 21.7666 -80.6856
lclavicle 8.84592e-015 7.55382e-015
lhumerus -31.3818 4.05534 82.1605
lradius 28.7283
lwrist 2.90884
lhand -22.2424 -15.2984
lfingers 7.12502
lthumb 4.17465 14.6404
rfemur -27.0748 7.71358 18.7417
rtibia 5.18149
rfoot -17.4189 -10.7741
rtoes -27.4774
lfemur -29.4386 -10.2358 -16.5481
ltibia 8.65515
lfoot -7.90385 3.42952
ltoes -40.4049
58
root 9.21891 16.3709 10.6365 -149.604 1.83721 179.118
lowerback -28.2498 -0.948945 -6.8244
upperback -2.44411 1.77299 -0.625883
thorax 12.8208 0.772623 3.97555
lowerneck -0.101486 -0.0805191 -3.82318
upperneck 8.79025 -0.941507 6.98582
head 2.92005 -0.545976 2.95172
rclavicle 5.86415e-015 -3.18055e-015
rhumerus -31.9107 -5.13268 -87.797
rradius 41.3958
rwrist -6.64132
rhand -4.32472 -51.6787
rfingers 7.12502
rthumb 21.4421 -80.5121
lclavicle 5.86415e-015 -3.18055e-015
lhumerus -31.3027 3.95189 82.2331
lradius 28.8673
lwrist 2.86966
lhand -22.1124 -15.4894
lfingers 7.12502
lthumb 4.30026 14.4469
rfemur -27.2183 7.73888 18.7551
rtibia 5.18881
rfoot -17.4394 -10.6437
rtoes -27.1554
lfemur -29.5709 -10.2557 -16.4645
ltibia 8.62403
lfoot -7.93426 3.42892
ltoes -40.0854
